<?xml version="1.0" encoding="UTF-8"?>
<svg width="1200" height="600" viewBox="0 0 1200 600" xmlns="http://www.w3.org/2000/svg">
  <!-- Background -->
  <rect width="100%" height="100%" fill="#003087"/>
  
  <!-- Rink outline -->
  <path d="M50,50 H1150 Q1170,50 1170,70 V530 Q1170,550 1150,550 H50 Q30,550 30,530 V70 Q30,50 50,50" 
        fill="white" stroke="#87CEEB" stroke-width="4"/>
  
  <!-- Center red line -->
  <line x1="600" y1="50" x2="600" y2="550" stroke="#E31837" stroke-width="4" stroke-dasharray="10,5"/>
  
  <!-- Blue lines -->
  <line x1="400" y1="50" x2="400" y2="550" stroke="#003087" stroke-width="4"/>
  <line x1="800" y1="50" x2="800" y2="550" stroke="#003087" stroke-width="4"/>
  
  <!-- Face-off circles -->
  <circle cx="300" cy="200" r="30" stroke="#E31837" stroke-width="2" fill="none"/>
  <circle cx="300" cy="400" r="30" stroke="#E31837" stroke-width="2" fill="none"/>
  <circle cx="900" cy="200" r="30" stroke="#E31837" stroke-width="2" fill="none"/>
  <circle cx="900" cy="400" r="30" stroke="#E31837" stroke-width="2" fill="none"/>
  
  <!-- Center ice circle -->
  <circle cx="600" cy="300" r="30" stroke="#003087" stroke-width="2" fill="none"/>
  
  <!-- Face-off dots -->
  <circle cx="200" cy="200" r="3" fill="#E31837"/>
  <circle cx="200" cy="400" r="3" fill="#E31837"/>
  <circle cx="1000" cy="200" r="3" fill="#E31837"/>
  <circle cx="1000" cy="400" r="3" fill="#E31837"/>
  <circle cx="600" cy="200" r="3" fill="#E31837"/>
  <circle cx="600" cy="400" r="3" fill="#E31837"/>
  
  <!-- Goal creases -->
  <path d="M80,270 Q100,300 80,330" stroke="#87CEEB" stroke-width="2" fill="none"/>
  <path d="M1120,270 Q1100,300 1120,330" stroke="#87CEEB" stroke-width="2" fill="none"/>
  
  <!-- Face-off markings -->
  <g stroke="#E31837" stroke-width="2">
    <path d="M285,185 h30 M285,215 h30 M285,385 h30 M285,415 h30" />
    <path d="M885,185 h30 M885,215 h30 M885,385 h30 M885,415 h30" />
  </g>
</svg>